<?xml version="1.0" encoding="utf-8"?>
<!-- Generator: Adobe Illustrator 25.0.0, SVG Export Plug-In . SVG Version: 6.00 Build 0)  -->
<svg version="1.1" id="katman_1" xmlns="http://www.w3.org/2000/svg" xmlns:xlink="http://www.w3.org/1999/xlink" x="0px" y="0px"
	 viewBox="0 0 1800 1344" style="enable-background:new 0 0 1800 1344;" xml:space="preserve">
<style type="text/css">
	.st0{fill-rule:evenodd;clip-rule:evenodd;fill:#E3ECF5;}
	.st1{fill:#FFFFFF;stroke:#C7C6C6;stroke-width:1.5444;stroke-miterlimit:10;}
	.st2{fill:#020203;}
	.st3{font-family:'Roboto-Bold';}
	.st4{font-size:64.9685px;}
	.st5{fill:#396EB5;}
	.st6{fill:#FFFFFF;}
</style>
<rect class="st0" width="1800" height="1344"/>
<g>
	<path class="st1" d="M1590.6,599.4H209.4c-11.9,0-21.5-9.6-21.5-21.5V413.8c0-11.9,9.6-21.5,21.5-21.5h1381.3
		c11.9,0,21.5,9.6,21.5,21.5v164.1C1612.1,589.8,1602.5,599.4,1590.6,599.4z"/>
	<text transform="matrix(1 0 0 1 582.8081 517.5396)" class="st2 st3 st4">Sign in with Facebook</text>
	<path class="st5" d="M341.8,461.6h8v-15.7c0,0-7.3-1.2-14.3-1.2c-14.5,0-24,8.8-24,24.8v14h-16.2v18.4h16.2v45.3h19.9v-45.3h14.8
		l2.8-18.4h-17.7v-11.9C331.5,466.5,333.9,461.6,341.8,461.6z"/>
</g>
<g>
	<path class="st5" d="M1475.2,952.3H324.8c-55.7,0-100.9-45.2-100.9-100.9v-5.3c0-55.7,45.2-100.9,100.9-100.9h1150.4
		c55.7,0,100.9,45.2,100.9,100.9v5.3C1576.1,907.1,1530.9,952.3,1475.2,952.3z"/>
	<g>
		<text transform="matrix(1 0 0 1 624.2905 870.416)" class="st6 st3 st4">Sign in with Facebook</text>
	</g>
	<path class="st6" d="M378.1,814.4h8v-15.7c0,0-7.3-1.2-14.3-1.2c-14.5,0-24,8.8-24,24.8v14h-16.2v18.4h16.2V900h19.9v-45.3h14.8
		l2.8-18.4h-17.7v-11.9C367.7,819.4,370.2,814.4,378.1,814.4z"/>
</g>
</svg>
